<?xml version="1.0" encoding="utf-8"?>
<!-- Generator: Adobe Illustrator 19.0.0, SVG Export Plug-In . SVG Version: 6.00 Build 0)  -->
<svg version="1.1" id="Layer_1" xmlns="http://www.w3.org/2000/svg" xmlns:xlink="http://www.w3.org/1999/xlink" x="0px" y="0px"
	 viewBox="0 0 512 512" style="enable-background:new 0 0 512 512;" xml:space="preserve">
<g id="XMLID_1_">
	<path id="XMLID_3_" d="M260.7,153.6c-16.8,0-30.7-14-30.7-30.7V30.7c0-16.8,14-30.7,30.7-30.7c16.8,0,30.7,14,30.7,30.7v92.2
		C291.4,140.6,277.4,153.6,260.7,153.6z"/>
	<path id="XMLID_4_" d="M260.7,512c-10.2,0-19.5-8.4-19.5-19.5v-92.2c0-10.2,8.4-19.5,19.5-19.5c11.2,0,19.5,8.4,19.5,19.5v92.2
		C280.2,503.6,271.8,512,260.7,512z"/>
	<path id="XMLID_5_" d="M191.8,170.4c-10.2,0-19.5-5.6-25.1-14.9l-46.5-80.1c-8.4-14-2.8-31.7,10.2-39.1c14-8.4,31.7-2.8,39.1,10.2
		l46.5,80.1c8.4,14,2.8,31.7-10.2,39.1C201.1,169.4,196.4,170.4,191.8,170.4z"/>
	<path id="XMLID_6_" d="M376.1,479.4c-5.6,0-12.1-2.8-14.9-8.4L314.6,391c-4.7-8.4-1.9-18.6,6.5-23.3c8.4-4.7,18.6-1.9,23.3,6.5
		l46.5,80.1c4.7,8.4,1.9,18.6-6.5,23.3L376.1,479.4z"/>
	<path id="XMLID_7_" d="M140.6,219.7c-4.7,0-9.3-0.9-13-3.7l-80.1-46.5c-13-7.4-17.7-24.2-10.2-37.2c7.4-13,24.2-17.7,37.2-10.2
		l80.1,46.5c13,7.4,17.7,24.2,10.2,37.2C159.2,215,149.9,219.7,140.6,219.7L140.6,219.7z"/>
	<path id="XMLID_8_" d="M460.8,392.8l-7.4-1.9l-80.1-46.5c-7.4-4.7-10.2-14-5.6-21.4s14-10.2,21.4-5.6l80.1,46.5
		c7.4,4.7,10.2,14,5.6,21.4C471,390.1,466.4,392.8,460.8,392.8L460.8,392.8z"/>
	<path id="XMLID_9_" d="M121.9,286.7H29.8c-14,0-25.1-11.2-25.1-25.1c0-14,11.2-25.1,25.1-25.1h92.2c14,0,25.1,11.2,25.1,25.1
		C147.1,275.5,135.9,286.7,121.9,286.7z"/>
	<path id="XMLID_10_" d="M491.5,277.4L491.5,277.4h-92.2c-8.4,0-15.8-6.5-15.8-15.8c0-8.4,6.5-15.8,15.8-15.8h92.2
		c8.4,0,15.8,6.5,15.8,15.8C507.3,270,499.9,277.4,491.5,277.4z"/>
	<path id="XMLID_11_" d="M60.5,400.3c-8.4,0-15.8-3.7-19.5-11.2c-6.5-11.2-2.8-25.1,8.4-31.7l80.1-46.5c11.2-6.5,25.1-2.8,31.7,8.4
		c6.5,11.2,2.8,25.1-8.4,31.7l-80.1,46.5C68.9,399.4,65.2,400.3,60.5,400.3z"/>
	<path id="XMLID_12_" d="M380.7,207.6c-5.6,0-10.2-2.8-13-7.4c-4.7-7.4-1.9-16.8,5.6-21.4l80.1-46.5c7.4-4.7,16.8-1.9,21.4,5.6
		c4.7,7.4,1.9,16.8-5.6,21.4l-80.1,46.5L380.7,207.6L380.7,207.6z"/>
	<path id="XMLID_13_" d="M145.2,483.1c-3.7,0-7.4-0.9-10.2-2.8c-10.2-5.6-14-18.6-7.4-28.9l46.5-80.1c5.6-10.2,18.6-14,28.9-7.4
		c10.2,5.6,14,18.6,7.4,28.9l-46.5,80.1C160.1,479.4,152.7,483.1,145.2,483.1z"/>
	<path id="XMLID_14_" d="M330.5,157.3l-7.4-1.9c-7.4-4.7-10.2-14-5.6-21.4L364,54c4.7-7.4,14-10.2,21.4-5.6s10.2,14,5.6,21.4
		l-46.5,80.1C340.7,154.5,335.1,157.3,330.5,157.3L330.5,157.3z"/>
</g>
</svg>
